<?xml version="1.0" standalone="no"?>
<!DOCTYPE svg PUBLIC "-//W3C//DTD SVG 20010904//EN"
 "http://www.w3.org/TR/2001/REC-SVG-20010904/DTD/svg10.dtd">
<svg version="1.0" xmlns="http://www.w3.org/2000/svg"
 width="818.000000pt" height="535.000000pt" viewBox="0 0 818.000000 535.000000"
 preserveAspectRatio="xMidYMid meet">

<g transform="translate(0.000000,535.000000) scale(0.100000,-0.100000)"
fill="#000000" stroke="none">
<path d="M4095 4471 c11 -4 61 -11 110 -14 50 -3 81 -2 70 2 -11 5 -60 11
-110 14 -50 4 -81 3 -70 -2z"/>
<path d="M3588 4441 c-20 -10 -64 -21 -97 -24 -38 -3 -84 -17 -123 -35 -46
-22 -54 -29 -31 -25 17 3 39 1 48 -5 15 -8 10 -12 -28 -27 -25 -9 -48 -23 -51
-31 -4 -9 6 -8 32 6 20 10 51 22 67 25 58 12 -1 -22 -78 -45 -63 -19 -188 -76
-297 -136 -19 -10 -64 -43 -99 -71 -44 -36 -75 -53 -93 -53 -15 0 -28 -5 -28
-11 0 -9 -44 -59 -140 -159 -14 -14 -36 -34 -50 -46 -14 -11 -38 -45 -53 -76
-29 -57 -56 -83 -93 -90 -23 -4 -70 -82 -91 -150 -19 -66 -5 -81 31 -33 33 42
51 46 42 8 l-6 -28 15 25 c17 29 19 44 5 35 -21 -13 -8 12 29 54 33 39 40 43
53 31 13 -13 10 -22 -28 -81 -52 -80 -123 -224 -155 -314 -13 -36 -29 -65 -35
-65 -26 0 -37 30 -30 85 7 62 -2 73 -47 56 -20 -8 -27 -18 -27 -36 0 -14 -10
-45 -22 -68 -18 -35 -23 -63 -26 -159 l-4 -116 40 -26 c32 -20 39 -30 35 -46
-4 -16 0 -23 16 -27 14 -4 20 -11 17 -20 -3 -8 -6 -62 -6 -119 0 -96 -1 -104
-19 -104 -27 0 -39 -40 -17 -56 11 -7 13 -13 6 -16 -8 -2 -9 -22 -3 -70 9 -60
8 -65 -7 -55 -13 7 -20 36 -29 103 -6 51 -11 103 -11 115 0 22 0 22 15 3 19
-25 19 -3 0 51 -8 22 -15 59 -15 83 0 23 -4 42 -10 42 -32 0 -38 -95 -19 -315
11 -127 44 -310 59 -330 5 -5 16 -37 25 -70 31 -108 112 -295 127 -295 4 0 8
-9 8 -20 0 -34 36 -92 85 -140 26 -25 55 -64 66 -87 10 -24 25 -43 34 -43 8 0
15 -9 15 -20 0 -11 7 -23 15 -25 8 -3 23 -8 33 -12 9 -3 21 -7 26 -7 6 -1 14
-16 18 -34 7 -25 13 -32 24 -28 18 7 67 -27 56 -39 -4 -3 -2 -5 3 -4 31 8 93
-26 154 -83 37 -35 76 -70 88 -80 23 -18 109 -58 125 -58 6 0 22 -8 36 -18 15
-11 42 -24 61 -30 18 -7 39 -19 45 -28 7 -9 30 -20 52 -24 21 -4 65 -15 97
-24 32 -9 69 -16 83 -16 13 0 32 -4 42 -9 9 -5 76 -15 147 -21 72 -6 148 -16
170 -22 47 -12 429 -2 456 13 22 11 99 12 99 1 0 -18 -227 -43 -385 -43 -88 0
-167 -4 -175 -9 -9 -5 -19 -5 -26 1 -7 5 -54 14 -106 19 -106 10 -206 30 -292
60 -33 11 -80 20 -105 19 l-46 0 75 -30 c41 -16 102 -34 135 -40 33 -6 96 -20
140 -30 129 -30 348 -42 503 -28 72 7 132 16 132 22 0 5 6 7 14 4 7 -3 56 1
107 10 52 8 123 18 159 23 70 9 180 47 247 86 23 13 49 24 58 24 9 0 19 9 22
20 3 12 14 20 28 20 12 0 34 10 48 23 40 35 214 157 224 157 5 0 22 13 36 30
15 16 44 38 64 49 21 10 47 28 57 40 22 24 74 41 127 41 47 0 69 25 69 78 0
28 7 49 24 69 31 37 51 78 66 133 6 25 18 56 27 69 8 12 13 31 10 41 -2 10 4
25 14 34 11 9 19 29 19 48 0 18 12 65 26 103 14 39 34 102 46 140 11 39 24 77
28 86 5 9 19 72 31 140 17 97 20 144 16 218 -4 51 -11 99 -16 105 -5 6 -12 68
-14 136 -2 88 -10 147 -25 199 -15 53 -18 80 -11 93 7 13 4 30 -11 62 -11 25
-20 65 -20 90 0 61 -53 214 -85 244 -14 12 -25 33 -25 45 0 23 -21 66 -94 194
-21 37 -49 87 -61 111 -21 42 -35 46 -35 10 0 -10 -4 -18 -10 -18 -5 0 -10 8
-10 18 0 10 -25 41 -56 68 -31 27 -73 67 -93 88 -55 59 -72 75 -118 109 -24
16 -50 41 -58 53 -8 13 -35 32 -59 43 -25 10 -51 29 -58 41 -11 18 -116 80
-135 80 -4 0 21 -17 54 -37 33 -21 83 -58 109 -81 47 -42 48 -44 19 -37 -16 3
-70 27 -120 52 -49 24 -115 49 -145 55 -30 5 -62 16 -70 23 -15 13 -220 80
-295 97 -22 5 -65 11 -95 13 -30 3 -62 8 -70 11 -8 3 -42 8 -75 10 -61 5 -86
16 -65 29 6 4 17 2 23 -4 17 -17 31 -13 17 4 -7 8 -21 15 -31 15 -9 0 -24 -7
-33 -15 -8 -8 -26 -15 -39 -15 -14 0 -41 7 -60 15 -20 8 -53 15 -74 16 -29 1
-20 4 36 15 40 7 76 16 79 19 3 3 -82 5 -189 5 -170 0 -199 -2 -231 -19z
m-868 -675 c0 -3 -18 -25 -39 -50 -21 -24 -54 -66 -72 -91 -18 -26 -35 -42
-37 -36 -5 16 17 51 54 83 19 17 34 35 34 40 0 12 42 58 53 58 4 0 7 -2 7 -4z
m1322 -151 c36 -18 38 -17 108 5 123 39 234 14 331 -77 85 -79 121 -221 84
-332 -52 -158 -231 -258 -389 -216 -32 8 -65 19 -74 24 -10 5 -31 1 -61 -12
-56 -25 -166 -27 -229 -3 -98 36 -178 118 -204 210 -62 222 105 435 332 422
36 -2 82 -11 102 -21z m-864 -940 c2 -57 -2 -71 -93 -273 -52 -118 -92 -218
-89 -223 3 -5 25 -9 48 -9 36 0 47 5 60 25 12 19 25 25 52 25 l35 0 -3 -77 -3
-78 -154 -3 c-104 -2 -158 1 -167 9 -8 7 -14 31 -14 60 0 40 17 83 100 260 55
117 100 217 100 221 0 4 -20 8 -45 8 -38 0 -45 -3 -45 -20 0 -16 -7 -20 -32
-20 -47 0 -68 24 -68 81 0 83 -7 80 164 77 l151 -3 3 -60z m262 27 c0 -21 -7
-47 -15 -58 -22 -29 -22 -446 1 -468 20 -20 58 -20 78 0 23 23 24 445 1 464
-9 8 -15 30 -15 56 l0 44 90 0 90 0 0 -32 c0 -18 -7 -46 -15 -62 -12 -22 -15
-72 -15 -240 0 -116 -5 -227 -10 -247 -21 -77 -110 -118 -213 -98 -63 11 -84
24 -107 62 -18 29 -20 52 -20 262 -1 186 -3 234 -15 249 -8 11 -15 39 -15 63
l0 43 90 0 90 0 0 -38z m480 6 c0 -18 -7 -46 -15 -62 -12 -23 -15 -72 -15
-247 0 -210 1 -219 21 -229 11 -6 30 -10 42 -8 40 6 47 40 47 246 0 174 -2
198 -21 238 -11 25 -19 55 -17 67 3 20 9 22 91 25 l87 3 0 -43 c0 -24 -7 -52
-15 -62 -12 -16 -15 -63 -15 -250 0 -211 -2 -234 -20 -263 -27 -45 -72 -65
-146 -65 -72 0 -127 22 -158 65 -20 26 -21 44 -24 260 -2 177 -6 239 -17 264
-8 17 -15 45 -15 62 l0 31 95 0 95 0 0 -32z m629 18 c7 -9 11 -38 9 -73 l-3
-58 -35 3 c-19 1 -42 10 -51 18 -11 10 -32 14 -60 12 l-44 -3 -3 -73 c-4 -93
3 -102 79 -102 l59 0 0 -45 0 -45 -58 0 c-32 0 -63 -5 -70 -12 -21 -21 -15
-152 8 -195 11 -21 20 -50 20 -65 l0 -28 -95 0 -95 0 0 39 c0 22 6 44 15 51
22 18 22 465 0 494 -8 11 -15 37 -15 58 l0 38 164 0 c129 0 166 -3 175 -14z
m261 -23 c0 -21 -7 -47 -15 -57 -22 -29 -22 -478 0 -496 9 -7 15 -29 15 -52
l0 -39 -92 3 c-88 3 -93 4 -96 26 -2 12 4 36 12 54 23 45 23 471 1 514 -16 31
-20 66 -8 77 3 4 46 7 95 7 l88 0 0 -37z m253 -70 c25 -60 58 -139 74 -177
l28 -70 3 117 c2 93 -1 122 -13 140 -8 12 -15 38 -15 59 l0 38 90 0 90 0 0
-44 c0 -26 -6 -48 -15 -56 -12 -10 -15 -59 -17 -294 l-3 -281 -38 -3 c-21 -2
-44 2 -52 8 -7 6 -46 88 -87 183 l-73 171 -3 -123 c-2 -100 0 -127 13 -141 8
-9 15 -35 15 -58 l0 -42 -90 0 -90 0 0 38 c0 20 7 46 15 56 22 29 22 468 0
486 -9 8 -15 30 -15 56 l0 44 69 0 69 0 45 -107z m-174 -718 c22 -21 3 -36
-35 -29 -42 8 -64 -8 -64 -47 0 -34 25 -50 72 -47 41 4 45 -21 7 -39 -56 -27
-129 22 -129 86 0 76 96 125 149 76z m-1649 -5 c0 -17 -7 -20 -45 -20 -51 0
-66 -26 -18 -32 17 -2 29 -10 31 -20 3 -14 -3 -18 -27 -18 -50 0 -40 -28 12
-32 34 -2 42 -7 42 -23 0 -18 -7 -20 -65 -20 l-65 0 -3 93 -3 92 71 0 c63 0
70 -2 70 -20z m177 -69 c18 -47 33 -88 33 -93 0 -4 -11 -8 -25 -8 -16 0 -25 6
-25 15 0 11 -11 15 -39 15 -25 0 -41 -5 -45 -15 -6 -16 -46 -21 -46 -5 0 9 57
157 67 173 3 4 14 7 26 5 16 -2 29 -22 54 -87z m187 83 c9 -3 16 -15 16 -25 0
-17 -5 -18 -40 -13 -53 9 -53 -11 -1 -32 42 -16 57 -45 40 -75 -15 -28 -47
-41 -82 -34 -40 9 -57 22 -57 46 0 23 9 24 45 5 29 -15 64 -11 47 6 -5 5 -24
17 -43 26 -40 20 -53 67 -23 89 19 14 71 17 98 7z m101 -13 c3 -11 12 -24 20
-31 11 -9 17 -5 30 19 11 22 23 31 41 31 l26 0 -28 -47 c-16 -27 -31 -68 -34
-93 -4 -37 -9 -46 -27 -48 -21 -3 -23 1 -23 37 0 28 -10 56 -30 89 -36 59 -36
62 -6 62 15 0 27 -7 31 -19z m355 -1 c0 -17 -7 -20 -40 -20 -33 0 -40 -3 -40
-20 0 -15 7 -20 25 -20 18 0 25 -5 25 -20 0 -15 -7 -20 -24 -20 -21 0 -25 -6
-28 -32 -2 -25 -8 -34 -25 -36 -22 -3 -23 -1 -23 92 l0 96 65 0 c58 0 65 -2
65 -20z m68 -72 c-3 -88 -4 -93 -25 -96 -22 -3 -23 -1 -23 92 l0 96 25 0 26 0
-3 -92z m107 40 l35 -53 0 53 c0 45 3 52 20 52 19 0 20 -7 20 -95 0 -84 -2
-95 -17 -95 -10 0 -33 23 -53 53 l-35 52 -3 -52 c-3 -45 -6 -53 -23 -53 -17 0
-19 8 -19 95 0 88 1 95 20 95 12 0 32 -19 55 -52z m260 -38 c18 -47 31 -88 28
-92 -8 -14 -41 -8 -47 7 -3 9 -19 15 -41 15 -22 0 -38 -6 -41 -15 -7 -17 -44
-20 -44 -4 0 7 14 50 32 96 29 76 34 84 56 81 21 -3 30 -16 57 -88z m136 38
l34 -53 3 53 c3 44 6 52 23 52 17 0 19 -8 19 -95 0 -87 -2 -95 -19 -95 -12 0
-31 19 -52 52 l-34 53 -3 -53 c-3 -44 -6 -52 -23 -52 -17 0 -19 8 -19 95 0 87
2 95 19 95 12 0 31 -19 52 -52z m447 35 c-2 -14 -15 -19 -51 -21 -33 -2 -47
-7 -47 -18 0 -9 11 -14 30 -14 23 0 30 -4 30 -20 0 -16 -7 -20 -30 -20 -19 0
-30 -5 -30 -14 0 -11 14 -16 48 -18 39 -3 47 -6 47 -23 0 -18 -8 -20 -67 -23
l-68 -3 0 96 0 95 71 0 c62 0 70 -2 67 -17z"/>
<path d="M3818 3591 c-65 -26 -103 -55 -139 -108 -167 -242 69 -547 348 -450
l32 11 -48 51 c-113 125 -109 327 11 444 l41 39 -53 16 c-69 21 -133 20 -192
-3z"/>
<path d="M4185 3603 c-11 -3 -31 -9 -44 -14 l-23 -9 37 -41 c61 -67 89 -140
89 -230 0 -67 -5 -86 -33 -143 -17 -36 -45 -75 -61 -86 -17 -12 -30 -25 -30
-30 0 -16 74 -34 141 -34 210 -1 352 227 260 419 -51 108 -136 166 -249 171
-37 1 -76 0 -87 -3z"/>
<path d="M4080 3553 c0 -5 26 -33 57 -63 42 -41 52 -47 38 -25 -32 54 -95 111
-95 88z"/>
<path d="M4032 3517 c-9 -10 12 -36 88 -112 93 -93 100 -98 100 -71 0 22 -18
47 -82 112 -45 46 -85 84 -89 84 -3 0 -11 -6 -17 -13z"/>
<path d="M3994 3456 c-5 -14 19 -44 105 -129 96 -97 111 -108 111 -87 0 37
-206 242 -216 216z"/>
<path d="M3964 3386 c-10 -26 200 -236 218 -218 10 10 -10 35 -99 124 -92 92
-113 109 -119 94z"/>
<path d="M3955 3290 c5 -26 29 -57 88 -117 73 -74 83 -81 97 -68 13 14 3 26
-89 118 -99 98 -103 101 -96 67z"/>
<path d="M3996 3162 c24 -42 79 -95 93 -91 6 2 -16 31 -50 64 -50 49 -58 54
-43 27z"/>
<path d="M3350 1851 c0 -5 -3 -16 -6 -25 -4 -11 0 -16 14 -16 15 0 19 5 15 20
-6 22 -23 38 -23 21z"/>
<path d="M4427 1848 c-10 -34 -9 -38 8 -38 16 0 20 27 6 48 -6 10 -10 8 -14
-10z"/>
<path d="M4492 4394 c10 -10 20 -15 24 -12 3 4 -5 12 -18 18 -22 12 -22 12 -6
-6z"/>
<path d="M4200 4389 c0 -5 5 -7 10 -4 6 3 10 8 10 11 0 2 -4 4 -10 4 -5 0 -10
-5 -10 -11z"/>
<path d="M4615 4350 c3 -5 13 -10 21 -10 8 0 12 5 9 10 -3 6 -13 10 -21 10 -8
0 -12 -4 -9 -10z"/>
<path d="M3192 4311 c-30 -10 -61 -26 -70 -36 -12 -12 -1 -9 35 9 29 14 59 26
67 26 8 0 18 5 21 10 8 12 10 13 -53 -9z"/>
<path d="M2885 4123 c-22 -19 -32 -32 -22 -29 10 3 22 6 27 6 9 0 44 50 38 55
-2 2 -21 -13 -43 -32z"/>
<path d="M2773 4038 c-18 -11 -33 -26 -33 -34 0 -19 26 -6 59 30 29 31 19 32
-26 4z"/>
<path d="M2764 3988 l-19 -21 28 18 c28 18 33 25 19 25 -5 0 -17 -10 -28 -22z"/>
<path d="M2703 3951 c-9 -12 -22 -21 -27 -21 -15 0 -110 -102 -140 -150 -15
-25 -38 -60 -52 -79 -25 -36 -30 -51 -15 -51 5 0 17 17 28 38 10 22 49 67 85
100 71 67 154 169 145 178 -3 3 -14 -4 -24 -15z"/>
<path d="M2525 3720 c-3 -5 -2 -10 4 -10 5 0 13 5 16 10 3 6 2 10 -4 10 -5 0
-13 -4 -16 -10z"/>
<path d="M5927 2663 c-10 -10 -8 -53 2 -53 5 0 11 14 13 30 4 29 -1 37 -15 23z"/>
<path d="M5947 2564 c-10 -19 -17 -54 -17 -77 0 -24 -4 -47 -9 -52 -5 -6 -11
-23 -13 -40 -4 -38 -21 -38 -28 1 -5 25 -7 27 -13 9 -5 -11 -10 -56 -13 -100
-6 -93 -13 -126 -48 -218 -14 -37 -26 -78 -26 -90 0 -12 -7 -31 -15 -41 -8
-11 -15 -27 -15 -35 0 -9 -7 -29 -15 -45 -20 -38 -19 -53 3 -33 29 27 54 22
46 -8 -7 -27 10 -35 20 -10 3 8 11 15 19 15 15 0 41 51 67 132 10 31 25 70 34
86 8 16 21 60 28 98 6 38 18 75 25 82 15 16 18 46 3 37 -13 -8 -13 18 -1 31 5
5 16 45 24 89 15 76 15 81 -3 96 -12 10 -17 24 -14 37 3 11 1 23 -5 26 -5 4
-8 13 -5 20 12 31 -14 22 -29 -10z"/>
</g>
</svg>
